<svg xmlns="http://www.w3.org/2000/svg" width="250.279" height="250.268" viewBox="0 0 250.279 250.268">
  <g id="undraw_click_here_re_y6uq" transform="translate(0 0)">
    <path id="Path_1" data-name="Path 1" d="M650.346,289.432H518.527a3.469,3.469,0,0,1-3.465-3.465V232.481a3.469,3.469,0,0,1,3.465-3.465H650.346a3.469,3.469,0,0,1,3.465,3.465v53.486A3.469,3.469,0,0,1,650.346,289.432Z" transform="translate(-403.531 -229.016)" fill="#e4e4e4"/>
    <path id="Path_2" data-name="Path 2" d="M647.982,381.891H541.267a4.158,4.158,0,1,1,0-8.315H647.982C653.344,373.5,653.4,381.967,647.982,381.891Z" transform="translate(-413.719 -295.818)" fill="#e4e4e4"/>
    <path id="Path_3" data-name="Path 3" d="M643.245,513.891H603.767a4.158,4.158,0,0,1,0-8.315h39.478C648.607,505.5,648.661,513.967,643.245,513.891Z" transform="translate(-442.601 -356.816)" fill="#3f3d56"/>
    <path id="Path_4" data-name="Path 4" d="M647.982,417.319H541.267a4.158,4.158,0,1,1,0-8.315H647.982C653.344,408.929,653.4,417.394,647.982,417.319Z" transform="translate(-413.719 -312.189)" fill="#e4e4e4"/>
    <path id="Path_5" data-name="Path 5" d="M647.982,452.746H541.267a4.158,4.158,0,1,1,0-8.315H647.982C653.344,444.356,653.4,452.822,647.982,452.746Z" transform="translate(-413.719 -328.56)" fill="#e4e4e4"/>
    <path id="Path_6" data-name="Path 6" d="M490.228,549.691a3.458,3.458,0,0,0-3.454,3.454v70.816a3.458,3.458,0,0,0,3.454,3.454h8.5a3.458,3.458,0,0,0,3.454-3.454V553.145a3.458,3.458,0,0,0-3.454-3.454Z" transform="translate(-390.459 -377.202)" fill="#9c53e4"/>
    <path id="Path_7" data-name="Path 7" d="M458.985,549.691a3.458,3.458,0,0,0-3.454,3.454v70.816a3.458,3.458,0,0,0,3.454,3.454h8.5a3.458,3.458,0,0,0,3.454-3.454V553.145a3.458,3.458,0,0,0-3.454-3.454Z" transform="translate(-376.021 -377.202)" fill="#9c53e4"/>
    <circle id="Ellipse_4" data-name="Ellipse 4" cx="29.359" cy="29.359" r="29.359" transform="translate(66.001 39.579)" fill="#9c53e4"/>
    <path id="Path_8" data-name="Path 8" d="M524.136,363.254c1.9-.053,4.272-.119,6.1-1.452a4.682,4.682,0,0,0,1.842-3.5A3.149,3.149,0,0,0,531,355.72a4.064,4.064,0,0,0-3.844-.553l1.554-11.355-1.141-.156L525.746,357l.953-.437c1.1-.507,2.62-.764,3.562.032a2.023,2.023,0,0,1,.664,1.667,3.538,3.538,0,0,1-1.371,2.607c-1.42,1.037-3.308,1.171-5.449,1.231Z" transform="translate(-407.71 -281.991)" fill="#2f2e41"/>
    <rect id="Rectangle_41" data-name="Rectangle 41" width="6.201" height="1.151" transform="translate(126.645 62.799)" fill="#2f2e41"/>
    <rect id="Rectangle_42" data-name="Rectangle 42" width="6.201" height="1.151" transform="translate(107.072 62.799)" fill="#2f2e41"/>
    <path id="Path_9" data-name="Path 9" d="M487.547,518.426H451.941a16.977,16.977,0,0,1-16.82-19.281l8.5-62.087a3.738,3.738,0,0,1,3.689-3.218h7.67c-.01-.106-.014-.207-.014-.307v-2.878a3.727,3.727,0,0,1,3.723-3.723H465.6a3.727,3.727,0,0,1,3.723,3.723v2.878c0,.1,0,.2-.014.307h7.67a3.738,3.738,0,0,1,3.689,3.218l10.567,77.14a3.723,3.723,0,0,1-3.688,4.228Z" transform="translate(-366.517 -320.475)" fill="#2f2e41"/>
    <path id="Path_10" data-name="Path 10" d="M449.357,351.633l-20.307-7.882c-3.321-1.289-6.66-2.539-9.963-3.872a11.357,11.357,0,0,1-3.835-2.26,7.535,7.535,0,0,1-1.912-3.7,38.115,38.115,0,0,1-.527-9.27,70.64,70.64,0,0,1,.819-9.925,47.944,47.944,0,0,1,6.131-17.489c5.695-9.344,15.507-16.374,26.793-15.813a22.944,22.944,0,0,1,14.363,5.707,9.066,9.066,0,0,0,1.356,1.314,1.88,1.88,0,0,0,1.08.072q.711-.046,1.422-.07a29.387,29.387,0,0,1,4.931.207,15.612,15.612,0,0,1,8.134,3.378,9.92,9.92,0,0,1,3.681,6.643,7.864,7.864,0,0,1-2.656,6.419c-2.423,2.042-5.879,1.324-8.786,1.17l-10.646-.564-5.394-.286c-1.111-.059-1.107,1.668,0,1.727l14.337.76a62.664,62.664,0,0,0,6.984.283,7.814,7.814,0,0,0,4.8-1.93,9.572,9.572,0,0,0,2.9-8.981,12.839,12.839,0,0,0-6.451-8.195c-4.194-2.366-9.2-2.593-13.9-2.243l.611.253c-5.309-5.7-13.441-8.1-21.075-7.262-8.061.889-15.23,5.386-20.381,11.535-5.743,6.856-8.873,15.4-10.09,24.2a80.511,80.511,0,0,0-.623,14.323,18.05,18.05,0,0,0,1.066,6.189,8.86,8.86,0,0,0,4.159,4.459,59.536,59.536,0,0,0,6.6,2.712l7.482,2.9,14.7,5.7L448.9,353.3c1.037.4,1.486-1.267.459-1.665Z" transform="translate(-355.475 -252.42)" fill="#2f2e41"/>
    <path id="Path_11" data-name="Path 11" d="M415.225,289.025a8.923,8.923,0,1,1,8.923-8.923A8.923,8.923,0,0,1,415.225,289.025Zm0-16.119a7.2,7.2,0,1,0,7.2,7.2,7.2,7.2,0,0,0-7.2-7.2Z" transform="translate(-353.273 -248.5)" fill="#2f2e41"/>
    <path id="Path_12" data-name="Path 12" d="M548.092,482.538a3.458,3.458,0,0,0-2.293-4.313l-63.657-19.467a7.7,7.7,0,0,0-9.053,10.981h0a7.6,7.6,0,0,0,3.764,3.464,7.859,7.859,0,0,0,.784.286l63.657,19.467a3.454,3.454,0,0,0,4.313-2.293Z" transform="translate(-383.719 -335.025)" fill="#9c53e4"/>
    <path id="Path_13" data-name="Path 13" d="M493.238,480.765a6.225,6.225,0,0,1-1.4-.564l-17.72-5.732c-8.436-3.517-5.629-12.832-3.323-21.73l.108-.417,18.083-3.123,13.62,6.088a6.23,6.23,0,0,1,3.281,7.887l-5.219,13.783a6.226,6.226,0,0,1-7.433,3.808Z" transform="translate(-381.981 -330.764)" fill="#2f2e41"/>
    <path id="Path_14" data-name="Path 14" d="M506.459,693.191h-198.1a.64.64,0,0,1,0-1.281h198.1a.64.64,0,0,1,0,1.281Z" transform="translate(-307.715 -442.922)" fill="#3f3d56"/>
  </g>
</svg>
